<svg id="Layer_1" data-name="Layer 1" xmlns="http://www.w3.org/2000/svg" viewBox="0 0 51.7873 47.1779"><title>Стрелка_новости_акции</title><path d="M74.0157,48.7012L53.1189,27.8045a2.7528,2.7528,0,0,0-.8813-0.6106A2.6738,2.6738,0,0,0,51.1985,27a2.5783,2.5783,0,0,0-1.0094.1888,2.7725,2.7725,0,0,0-.8779.61l-0.0053.0054-2.4069,2.4063-0.0221.0221a2.4566,2.4566,0,0,0-.5882.8249,2.9663,2.9663,0,0,0,0,2.0818,2.46,2.46,0,0,0,.5885.8246l0.0275,0.0275L56.31,43.43l2.4055,2.414H25.338a2.3123,2.3123,0,0,0-.9419.1783,2.0054,2.0054,0,0,0-.7022.5312,2.7725,2.7725,0,0,0-.5216.88,3.2484,3.2484,0,0,0-.1723,1.1v4.1091a3.2513,3.2513,0,0,0,.1723,1.1013,2.77,2.77,0,0,0,.5216.8793,2.02,2.02,0,0,0,.7022.5377,2.3141,2.3141,0,0,0,.9419.1738H58.73L56.31,57.7548l-9.4059,9.4059H46.8989a2.7285,2.7285,0,0,0-.6049.879,2.879,2.879,0,0,0,0,2.0781,2.727,2.727,0,0,0,.6052.88l0.0054,0.0054,2.38,2.3817a2.975,2.975,0,0,0,.9114.6075,2.6156,2.6156,0,0,0,1.0031.186,2.7208,2.7208,0,0,0,1.0335-.1917,2.9135,2.9135,0,0,0,.887-0.5779l-0.002-.002,20.8987-20.899a2.58,2.58,0,0,0,.58-0.8529,3.1068,3.1068,0,0,0,.0057-2.1331,2.3052,2.3052,0,0,0-.5581-0.7979l-0.0275-.0221h0Z" transform="translate(-23 -27)"/></svg>