<svg id="Layer_1" data-name="Layer 1" xmlns="http://www.w3.org/2000/svg" viewBox="0 0 26.6939 13.601"><defs><style>.cls-1{fill:#ffffff;}</style></defs><title>404</title><path class="cls-1" d="M84.6866,46.5031h1.1466v2.07H84.6866v2.8883H82.1178V48.573H77.7329l-0.1367-1.6143,4.5122-8.7174h2.5781v8.2618h0Zm-4.7475,0h2.1787V41.9382l-0.0527-.0091-0.1364.2446-1.99,4.3293h0Z" transform="translate(-59.1393 -38.0525)"/><path class="cls-1" d="M76.3787,46.2767a6.4971,6.4971,0,0,1-1.0473,4.01,3.5961,3.5961,0,0,1-5.6432,0,6.494,6.494,0,0,1-1.0537-4.01V43.4352a6.5154,6.5154,0,0,1,1.0506-4.007,3.5815,3.5815,0,0,1,5.6432,0,6.5175,6.5175,0,0,1,1.05,4.007v2.8415h0ZM73.8,43.209a6,6,0,0,0-.3348-2.3335,0.9548,0.9548,0,0,0-.9357-0.6911H72.4771a0.9457,0.9457,0,0,0-.936.6911,6.1474,6.1474,0,0,0-.3282,2.3335v3.2785a6.0921,6.0921,0,0,0,.3376,2.355,0.9393,0.9393,0,0,0,.9453.6848h0.0525a0.92,0.92,0,0,0,.9267-0.6817A6.2508,6.2508,0,0,0,73.8,46.4876V43.209h0Z" transform="translate(-59.1393 -38.0525)"/><path class="cls-1" d="M66.23,46.5031h1.1465v2.07H66.23v2.8883H63.6609V48.573H59.2759l-0.1366-1.6143,4.5122-8.7174H66.23v8.2618h0Zm-4.7475,0h2.1788V41.9382l-0.0527-.0091-0.1364.2446-1.99,4.3293h0Z" transform="translate(-59.1393 -38.0525)"/></svg>